#!OML:ASF G:\JayActor3\Patient Classification 1\Patient 1\Session 2\male.ASF
:FULLY-SPECIFIED
:DEGREES
3520
root -35.2986 16.5283 -5.78442 -1266.24 -419.764 905.689
lowerback -7.93835 -3.03429 0.552344
upperback -0.423416 -4.44228 4.72541
thorax 4.34966 -2.30319 4.08486
lowerneck 6.05305 -15.7271 -16.0651
upperneck 2.90537 -23.7402 19.857
head 4.2144 -12.1562 7.32021
rclavicle -1.44218e-013 3.18055e-014
rhumerus -45.3617 22.6863 -90.1017
rradius 59.6449
rwrist -7.97105
rhand -19.0002 3.0129
rfingers 7.12502
rthumb 7.30496 -26.841
lclavicle -1.44218e-013 3.18055e-014
lhumerus -43.0674 -20.8656 101.599
lradius 87.0572
lwrist 10.8257
lhand -7.75871 17.4742
lfingers 7.12502
lthumb 18.141 46.6483
rfemur -11.8379 -8.40676 35.4606
rtibia 32.9159
rfoot -23.569 -11.714
rtoes 27.2946
lfemur -2.72362 12.7229 -13.9359
ltibia 55.0923
lfoot -8.82558 0.626189
ltoes -27.1686
3521
root -35.3479 16.5251 -5.77332 -1266.22 -418.65 905.768
lowerback -7.94052 -2.97457 0.782646
upperback -0.308186 -4.40159 4.8296
thorax 4.45995 -2.28391 4.06677
lowerneck 6.06068 -15.7168 -16.0369
upperneck 2.89843 -23.7341 19.8709
head 4.20826 -12.1546 7.32302
rclavicle -5.73494e-014 3.02153e-014
rhumerus -44.9084 23.2002 -90.1883
rradius 59.8502
rwrist -7.89602
rhand -19.0001 3.04295
rfingers 7.12502
rthumb 7.30505 -26.8109
lclavicle -5.73494e-014 3.02153e-014
lhumerus -43.2819 -20.6333 101.517
lradius 86.3125
lwrist 10.679
lhand -8.10962 17.5255
lfingers 7.12502
lthumb 17.8034 46.7305
rfemur -11.6572 -8.05637 35.4737
rtibia 32.9173
rfoot -23.2025 -11.3525
rtoes 26.5968
lfemur -3.60736 12.0736 -13.9445
ltibia 55.6065
lfoot -9.74329 2.79029
ltoes -26.7805
3522
root -35.3966 16.5237 -5.76281 -1266.11 -417.513 905.783
lowerback -7.97255 -2.9153 0.986084
upperback -0.207034 -4.35924 4.92094
thorax 4.57343 -2.26374 4.04958
lowerneck 6.05946 -15.717 -15.9796
upperneck 2.88965 -23.7356 19.8568
head 4.19723 -12.1559 7.31211
rclavicle -1.42727e-013 -2.8625e-014
rhumerus -44.4611 23.7141 -90.285
rradius 60.0442
rwrist -7.84767
rhand -19.0083 3.08523
rfingers 7.12502
rthumb 7.29712 -26.7689
lclavicle -1.42727e-013 -2.8625e-014
lhumerus -43.5154 -20.399 101.418
lradius 85.5863
lwrist 10.5514
lhand -8.411 17.6171
lfingers 7.12502
lthumb 17.5133 46.8482
rfemur -11.5177 -7.65092 35.4391
rtibia 32.9598
rfoot -22.992 -10.7334
rtoes 26.6538
lfemur -4.49404 11.4311 -13.9824
ltibia 56.0192
lfoot -10.6197 4.92736
ltoes -26.1586
3523
root -35.4421 16.5221 -5.75272 -1265.94 -416.373 905.762
lowerback -8.00419 -2.866 1.1457
upperback -0.125413 -4.32545 5.00742
thorax 4.66993 -2.24835 4.05155
lowerneck 6.04464 -15.7215 -15.9126
upperneck 2.89105 -23.7412 19.8284
head 4.18914 -12.1581 7.29356
rclavicle -6.91771e-014 2.54444e-014
rhumerus -44.0186 24.2317 -90.3957
rradius 60.2237
rwrist -7.83065
rhand -19.0246 3.14859
rfingers 7.12502
rthumb 7.2814 -26.7061
lclavicle -6.91771e-014 2.54444e-014
lhumerus -43.7677 -20.1539 101.297
lradius 84.882
lwrist 10.4551
lhand -8.64424 17.7331
lfingers 7.12502
lthumb 17.2889 46.9841
rfemur -11.4448 -7.24466 35.3942
rtibia 33.0397
rfoot -22.7888 -10.0983
rtoes 26.7327
lfemur -5.39606 10.7993 -14.009
ltibia 56.3351
lfoot -11.4487 6.92204
ltoes -25.415
3524
root -35.4839 16.5201 -5.7431 -1265.71 -415.23 905.707
lowerback -8.01848 -2.82608 1.25465
upperback -0.0611227 -4.29785 5.0906
thorax 4.74251 -2.23688 4.07912
lowerneck 6.02453 -15.7287 -15.8486
upperneck 2.90145 -23.7521 19.7967
head 4.18541 -12.1626 7.27285
rclavicle 1.55052e-014 -7.63333e-014
rhumerus -43.5913 24.7495 -90.52
rradius 60.4018
rwrist -7.84185
rhand -19.0587 3.2063
rfingers 7.12502
rthumb 7.24848 -26.6496
lclavicle 1.55052e-014 -7.63333e-014
lhumerus -44.0394 -19.9011 101.158
lradius 84.1988
lwrist 10.402
lhand -8.8122 17.8509
lfingers 7.12502
lthumb 17.1272 47.116
rfemur -11.4186 -6.84252 35.3381
rtibia 33.1536
rfoot -22.5919 -9.4551
rtoes 26.8035
lfemur -6.28719 10.1751 -14.0166
ltibia 56.5424
lfoot -12.2215 8.71306
ltoes -24.6618
